<?xml version="1.0" encoding="UTF-8" standalone="no"?><!DOCTYPE svg PUBLIC "-//W3C//DTD SVG 1.1//EN" "http://www.w3.org/Graphics/SVG/1.1/DTD/svg11.dtd"><svg width="100%" height="100%" viewBox="0 0 200 200" version="1.1" xmlns="http://www.w3.org/2000/svg" xmlns:xlink="http://www.w3.org/1999/xlink" xml:space="preserve" xmlns:serif="http://www.serif.com/" style="fill-rule:evenodd;clip-rule:evenodd;stroke-linejoin:round;stroke-miterlimit:2;"><path d="M79.167,58.333c-2.857,0 -5.208,2.351 -5.208,5.208l0,52.083c0,2.857 2.351,5.208 5.208,5.208l52.083,0c2.857,0 5.208,-2.351 5.208,-5.208l0,-52.083c0,-2.857 -2.351,-5.208 -5.208,-5.208l-52.083,0Zm10.417,72.917c-2.857,0 -5.208,2.351 -5.208,5.208c0,2.857 2.351,5.208 5.208,5.208l31.25,0c2.857,0 5.208,-2.351 5.208,-5.208c0,-2.857 -2.351,-5.208 -5.208,-5.208l-31.25,0Z" style="fill:#ffc107;fill-rule:nonzero;"/><path d="M53.125,16.667l104.167,0c11.429,-0 20.833,9.405 20.833,20.833l0,125c0,11.429 -9.405,20.833 -20.833,20.833l-104.167,0c-11.429,0 -20.833,-9.405 -20.833,-20.833l0,-10.417l10.417,0l0,10.417c0,5.714 4.702,10.417 10.417,10.417l104.167,0c5.714,0 10.417,-4.702 10.417,-10.417l0,-125c0,-5.714 -4.702,-10.417 -10.417,-10.417l-104.167,0c-5.714,0 -10.417,4.702 -10.417,10.417l0,10.417l-10.417,0l0,-10.417c-0,-11.429 9.405,-20.833 20.833,-20.833" style="fill:#ffc107;fill-rule:nonzero;"/><path d="M32.292,68.75l0,-5.208c0,-2.857 2.351,-5.208 5.208,-5.208c2.857,0 5.208,2.351 5.208,5.208l0,5.208l5.208,0c2.857,0 5.208,2.351 5.208,5.208c0,2.857 -2.351,5.208 -5.208,5.208l-20.833,0c-2.857,0 -5.208,-2.351 -5.208,-5.208c0,-2.857 2.351,-5.208 5.208,-5.208l5.208,0Zm0,31.25l0,-5.208c0,-2.857 2.351,-5.208 5.208,-5.208c2.857,0 5.208,2.351 5.208,5.208l0,5.208l5.208,0c2.857,0 5.208,2.351 5.208,5.208c0,2.857 -2.351,5.208 -5.208,5.208l-20.833,0c-2.857,0 -5.208,-2.351 -5.208,-5.208c0,-2.857 2.351,-5.208 5.208,-5.208l5.208,0Zm0,31.25l0,-5.208c0,-2.857 2.351,-5.208 5.208,-5.208c2.857,0 5.208,2.351 5.208,5.208l0,5.208l5.208,0c2.857,0 5.208,2.351 5.208,5.208c0,2.857 -2.351,5.208 -5.208,5.208l-20.833,0c-2.857,0 -5.208,-2.351 -5.208,-5.208c0,-2.857 2.351,-5.208 5.208,-5.208l5.208,0Z" style="fill:#ffc107;fill-rule:nonzero;"/></svg>